<?xml version="1.0" encoding="UTF-8"?><svg id="Layer_2" xmlns="http://www.w3.org/2000/svg" viewBox="0 0 295.28 256.38"><defs><style>.cls-1{fill:#333;}.cls-2{fill:#cc7627;}</style></defs><g id="Layer_1-2"><path class="cls-1" d="M7.93,226.12v-53.96h5.2l37.04,36.1c.84.81,1.75,1.8,2.68,2.95.96,1.17,1.93,2.44,2.94,3.84-.24-1.72-.42-3.56-.55-5.45-.12-1.88-.19-4.48-.19-7.82v-29.62h7.58v53.96h-4.63l-38.04-37.54c-.19-.15-.47-.42-.83-.8-1.87-1.84-3.27-3.6-4.17-5.26.17,1.63.3,3.37.41,5.24.09,1.84.14,4.05.14,6.56v31.81h-7.58Z"/><path class="cls-1" d="M78.73,226.12l27.01-53.96h8.84l27.5,53.96h-9.09l-6.31-13.19h-33.48l-6.32,13.19h-8.15ZM96.66,205.95h26.65l-13.34-27.62-13.31,27.62Z"/><path class="cls-1" d="M158.05,226.12v-53.96h5.2l37.04,36.1c.87.81,1.75,1.8,2.7,2.95.96,1.17,1.92,2.44,2.93,3.84-.24-1.72-.44-3.56-.57-5.45-.12-1.88-.19-4.48-.19-7.82v-29.62h7.59v53.96h-4.65l-38.02-37.54c-.19-.15-.47-.42-.84-.8-1.88-1.84-3.27-3.6-4.17-5.26.18,1.63.34,3.37.43,5.24.08,1.84.13,4.05.13,6.56v31.81h-7.59Z"/><path class="cls-1" d="M237.92,184.95c0-4.91.81-8.29,2.43-10.1,1.61-1.8,4.68-2.7,9.19-2.7h34.25c4.47,0,7.49.9,9.11,2.69,1.6,1.79,2.38,5.15,2.38,10.1v28.39c0,4.97-.78,8.35-2.38,10.11-1.62,1.78-4.64,2.66-9.11,2.66h-34.25c-4.51,0-7.58-.9-9.19-2.71-1.61-1.81-2.43-5.16-2.43-10.06v-28.39ZM246.17,218.57h40.99v-39.02h-40.99v39.02Z"/><path class="cls-1" d="M7.86,256.38v-19.72h9.79c2.79,0,4.94.85,6.46,2.55,1.49,1.68,2.25,4.09,2.25,7.19,0,1.84-.3,3.5-.9,4.95-.59,1.49-1.4,2.64-2.48,3.5-.67.53-1.47.93-2.47,1.16-.99.25-2.25.37-3.79.37H7.86ZM11.38,252.69h4.6c2.44,0,4.17-.49,5.2-1.48,1.02-.99,1.52-2.63,1.52-4.88,0-2.01-.42-3.53-1.27-4.57-.84-1.04-2.1-1.56-3.76-1.56h-6.29v12.49Z"/><path class="cls-2" d="M36.99,256.38v-19.72h15.59v3.32h-12.08v4.43h7.06v3.33h-7.06v4.95h12.2v3.7h-15.72Z"/><path class="cls-2" d="M76.61,240.12h-9.96v4.23h9.48c1.47,0,2.5.32,3.01.99.52.65.78,1.89.78,3.67v2.71c0,1.79-.26,3.02-.78,3.67-.51.66-1.54.99-3.01.99h-9.42c-1.47,0-2.48-.33-3.01-.99-.52-.65-.77-1.88-.77-3.67v-.55l3.11-.85v2.36h10.78v-4.5h-9.5c-1.49,0-2.48-.35-3.01-1.01-.51-.65-.78-1.86-.78-3.69v-2.16c0-1.79.28-3.03.78-3.68.54-.66,1.53-.99,3.01-.99h8.65c1.43,0,2.39.31,2.95.94.53.65.8,1.79.8,3.4v.41l-3.11.94v-2.22Z"/><path class="cls-2" d="M91.4,256.38v-19.72h3.53v19.72h-3.53Z"/><path class="cls-2" d="M121.16,240.2h-11.04v12.49h11.04v-4.42h-5.76v-3.34h9.22v6.79c0,1.81-.27,3.03-.78,3.67-.53.66-1.53.99-3,.99h-10.49c-1.47,0-2.46-.33-2.99-.99-.51-.64-.78-1.86-.78-3.67v-10.37c0-1.81.27-3.04.78-3.7.53-.67,1.52-.99,2.99-.99h10.49c1.46,0,2.46.32,2.99.98.52.64.79,1.82.79,3.53v.45l-3.46.8v-2.22Z"/><path class="cls-2" d="M136.21,256.38v-19.72h2.43l10.72,11.64c.36.37.69.75.98,1.08.24.35.51.71.75,1.07-.07-1.11-.11-1.89-.11-2.37-.03-.46-.04-.81-.04-1.07v-10.34h3.19v19.72h-2.4l-11.19-12.18c-.25-.31-.5-.6-.7-.85-.21-.25-.37-.5-.55-.76.05.61.07,1.19.1,1.72.03.54.03,1.02.03,1.42v10.65h-3.2Z"/><path class="cls-1" d="M181.56,256.38v-19.72h13.08c1.17,0,2.05.3,2.58.9.55.6.82,1.57.82,2.89v2.42c0,.94-.24,1.71-.69,2.26-.46.58-1.1.94-1.94,1.06.87.17,1.56.56,2.04,1.23.49.65.71,1.51.71,2.57v2.52c0,1.31-.36,2.28-1.11,2.9-.73.66-1.85.97-3.38.97h-12.12ZM193.16,239.82h-8.13v4.73h8.13c.61,0,1.04-.1,1.26-.32.24-.2.37-.59.37-1.09v-1.87c0-.53-.13-.89-.37-1.11-.22-.21-.65-.33-1.26-.33ZM193.16,247.81h-8.13v5.04h8.13c.65,0,1.11-.12,1.35-.39.23-.28.34-.74.34-1.41v-1.48c0-.66-.12-1.12-.34-1.35-.24-.28-.7-.41-1.35-.41Z"/><path class="cls-2" d="M212.65,236.66v16.03h10.1v-16.03h3.53v15.07c0,1.81-.26,3.02-.78,3.67-.52.67-1.51.98-2.99.98h-9.62c-1.47,0-2.45-.31-2.99-.98-.52-.65-.77-1.86-.77-3.67v-15.07h3.52Z"/><path class="cls-2" d="M238.22,256.38v-19.72h3.54v19.72h-3.54Z"/><path class="cls-2" d="M253.69,256.38v-19.72h3.53v16.03h11.46v3.7h-14.99Z"/><path class="cls-2" d="M276.71,256.18v-19.63h9.74c2.78,0,4.91.84,6.43,2.53,1.49,1.67,2.22,4.08,2.22,7.16,0,1.83-.27,3.5-.86,4.93-.57,1.48-1.4,2.64-2.47,3.48-.66.53-1.48.93-2.46,1.15-.97.26-2.23.37-3.76.37h-8.83ZM280.21,252.5h4.57c2.44,0,4.16-.48,5.17-1.47,1.03-.96,1.52-2.59,1.52-4.85,0-2.01-.41-3.51-1.26-4.54-.85-1.04-2.08-1.55-3.74-1.55h-6.26v12.41Z"/><polygon points="124.29 100.11 124.29 153.72 158.48 153.72 179.95 153.72 124.29 66.44 124.29 100.11"/><polygon class="cls-2" points="245.55 153.72 242.07 153.72 224.09 153.72 179.95 153.72 158.48 153.72 124.29 153.72 102.82 153.72 73.43 153.72 72.63 153.72 72.63 6.14 51.15 6.14 51.15 153.72 51.15 159.87 72.63 159.87 73.43 159.87 102.82 159.87 124.29 159.87 162.4 159.87 183.87 159.87 224.09 159.87 242.07 159.87 245.55 159.87 295.14 159.87 295.14 153.72 245.55 153.72"/><polygon points="73.43 6.14 119.59 6.14 141.06 6.14 170.86 56.17 192.34 92.23 192.34 6.14 224.09 6.14 242.07 6.14 243.53 6.14 243.53 .32 243.53 0 242.07 0 73.43 0 0 0 0 6.14 51.15 6.14 72.63 6.14 73.43 6.14"/></g></svg>