<?xml version="1.0" encoding="UTF-8"?><svg id="Layer_2" xmlns="http://www.w3.org/2000/svg" viewBox="0 0 492.12 83.79"><g id="Layer_1-2"><path d="M0,2.05h10.25v14.28c4.1-5.47,8.64-9.56,13.62-12.27S34.28,0,40.14,0s11.24,1.51,15.86,4.54c4.61,3.03,8.02,7.1,10.22,12.23s3.3,13.11,3.3,23.95v41.02h-10.25v-38.01c0-9.18-.38-15.31-1.14-18.38-1.19-5.27-3.47-9.24-6.84-11.9-3.37-2.66-7.77-3.99-13.19-3.99-6.2,0-11.76,2.05-16.67,6.15-4.91,4.1-8.14,9.18-9.71,15.23-.98,3.96-1.46,11.18-1.46,21.68v29.22H0V2.05Z"/><path d="M170.87,2.05v79.69h-10.11v-13.7c-4.3,5.23-9.12,9.16-14.47,11.79s-11.19,3.96-17.54,3.96c-11.28,0-20.91-4.09-28.89-12.27-7.98-8.18-11.98-18.13-11.98-29.85s4.03-21.29,12.08-29.44C108.03,4.08,117.72,0,129.05,0c6.54,0,12.46,1.39,17.76,4.17,5.3,2.78,9.95,6.96,13.95,12.52V2.05h10.11ZM129.9,9.89c-5.71,0-10.97,1.4-15.8,4.21-4.83,2.8-8.67,6.74-11.52,11.82-2.85,5.07-4.28,10.44-4.28,16.09s1.44,10.98,4.32,16.1c2.88,5.12,6.74,9.11,11.6,11.96,4.85,2.85,10.06,4.28,15.62,4.28s10.92-1.42,15.95-4.24c5.02-2.83,8.89-6.66,11.59-11.49,2.71-4.83,4.06-10.27,4.06-16.32,0-9.22-3.04-16.92-9.11-23.12-6.07-6.19-13.55-9.29-22.42-9.29Z"/><path d="M193.95,2.05h10.25v14.28c4.1-5.47,8.64-9.56,13.62-12.27s10.4-4.06,16.26-4.06,11.24,1.51,15.86,4.54c4.61,3.03,8.02,7.1,10.22,12.23s3.3,13.11,3.3,23.95v41.02h-10.25v-38.01c0-9.18-.38-15.31-1.14-18.38-1.19-5.27-3.47-9.24-6.84-11.9-3.37-2.66-7.77-3.99-13.19-3.99-6.2,0-11.76,2.05-16.67,6.15-4.91,4.1-8.14,9.18-9.71,15.23-.98,3.96-1.46,11.18-1.46,21.68v29.22h-10.25V2.05Z"/><path d="M323.14,0c12.28,0,22.45,4.44,30.52,13.33,7.34,8.11,11.01,17.7,11.01,28.78s-3.88,20.86-11.63,29.19c-7.75,8.33-17.72,12.49-29.9,12.49s-22.22-4.16-29.97-12.49c-7.75-8.32-11.63-18.05-11.63-29.19s3.67-20.6,11.01-28.71c8.07-8.94,18.27-13.4,30.6-13.4ZM323.11,10.03c-8.53,0-15.85,3.15-21.98,9.45s-9.19,13.92-9.19,22.85c0,5.76,1.4,11.13,4.19,16.11s6.57,8.83,11.32,11.54c4.75,2.71,9.97,4.07,15.66,4.07s10.9-1.35,15.66-4.07c4.75-2.71,8.53-6.55,11.32-11.54,2.79-4.98,4.19-10.35,4.19-16.11,0-8.94-3.08-16.55-9.22-22.85-6.15-6.3-13.46-9.45-21.94-9.45Z"/><path d="M397.48,37.77c0,1.75-.52,3.13-1.56,4.12-1.04,1-2.44,1.5-4.21,1.5h-9.08V13.59h9.08c1.76,0,3.17.5,4.21,1.51,1.04,1.01,1.56,2.39,1.56,4.14v18.53ZM393,37.03v-17.12c0-1.66-.87-2.49-2.61-2.49h-3.31v22.15h3.2c1.82,0,2.72-.84,2.72-2.53Z"/><path d="M416.56,43.39h-12.36V13.59h12.24v3.94h-7.79v8.7h6.7v3.87h-6.7v9.35h7.9v3.94Z"/><path d="M437.17,40.67c0,1.82-.9,2.72-2.7,2.72h-8.97c-1.79,0-2.68-.91-2.68-2.72v-7.1h4.46v6.07h5.45v-5.85l-8.93-8.46c-.65-.62-.97-1.42-.97-2.38v-6.63c0-1.83.89-2.74,2.68-2.74h8.97c1.8,0,2.7.9,2.7,2.7v6.67h-4.46v-5.62h-5.45v5.39l8.93,8.42c.65.61.97,1.42.97,2.42v7.1Z"/><path d="M448.51,43.39h-4.46V13.59h4.46v29.8Z"/><path d="M470.19,40.67c0,1.82-.91,2.72-2.72,2.72h-9.37c-1.76,0-2.65-.91-2.65-2.72v-24.34c0-1.83.9-2.74,2.7-2.74h9.31c1.82,0,2.72.91,2.72,2.74v6.36h-4.48v-5.27h-5.81v22.15h5.81v-8.34h-3.31v-3.79h7.79v13.24Z"/><path d="M492.12,43.39h-3.9l-7.14-18.76c.19.91.29,1.63.29,2.15v16.61h-4.34V13.59h3.9l7.14,18.38c-.19-.91-.29-1.63-.29-2.15V13.59h4.34v29.8Z"/><path d="M397.25,79.67c0,1.82-.91,2.72-2.72,2.72h-11.9v-29.8h11.83c1.76,0,2.65.91,2.65,2.74v7.67c0,1.02-.32,1.8-.95,2.36-.09.08-.86.57-2.32,1.47,1.51.93,2.31,1.44,2.4,1.52.69.6,1.03,1.42,1.03,2.46v8.86ZM392.66,63.55v-7.22h-5.58v8.74h3.43l2.15-1.52ZM392.77,78.64v-8.49l-2.19-1.45h-3.5v9.94h5.69Z"/><path d="M418.94,79.67c0,1.82-.91,2.72-2.74,2.72h-9.46c-1.8,0-2.7-.91-2.7-2.72v-27.08h4.46v25.97h6v-25.97h4.46v27.08Z"/><path d="M430.33,82.39h-4.46v-29.8h4.46v29.8Z"/><path d="M448.97,82.39h-11.71v-29.8h4.46v25.82h7.25v3.98Z"/><path d="M469.75,76.77c0,1.75-.52,3.13-1.56,4.12-1.04,1-2.44,1.5-4.21,1.5h-9.08v-29.8h9.08c1.76,0,3.17.5,4.21,1.51,1.04,1.01,1.56,2.39,1.56,4.14v18.53ZM465.27,76.03v-17.12c0-1.66-.87-2.49-2.61-2.49h-3.31v22.15h3.2c1.82,0,2.72-.84,2.72-2.53Z"/></g></svg>